<?xml version="1.0" encoding="utf-8"?>
<!-- Generator: Adobe Illustrator 19.0.0, SVG Export Plug-In . SVG Version: 6.00 Build 0)  -->
<svg version="1.1" id="Layer_1" xmlns="http://www.w3.org/2000/svg" xmlns:xlink="http://www.w3.org/1999/xlink" x="0px" y="0px"
	 viewBox="-735 459 389 163" style="enable-background:new -735 459 389 163;" xml:space="preserve">
<style type="text/css">
	.st0{fill:#870042;}
</style>
<g>
	<path class="st0" d="M-650.1,551.2l-48.9,29v-17.4l26.3-15.8l-26.3-16.4v-16.4l48.9,29.5V551.2z"/>
	<path d="M-639.4,507.9v-15.4h15.5v15.4H-639.4z M-639.4,577.1v-60.7h15.5v60.7H-639.4z"/>
	<path d="M-573.5,573.9c-2.1,0.9-4.6,1.9-7.6,2.8c-3,0.9-6.2,1.4-9.5,1.4c-2.2,0-4.2-0.3-6.1-0.8c-1.9-0.5-3.6-1.4-5-2.6
		c-1.4-1.2-2.6-2.7-3.4-4.6c-0.9-1.9-1.3-4.2-1.3-6.9v-34.9h-8v-11.9h8v-19.7h15.5v19.7h12.7v11.9h-12.7v29.6c0,2.2,0.6,3.7,1.7,4.6
		c1.1,0.9,2.5,1.3,4.1,1.3c1.6,0,3.2-0.3,4.7-0.8c1.5-0.5,2.8-1,3.7-1.4L-573.5,573.9z"/>
	<path d="M-546.8,578.2c-6.3,0-11-2-14.2-6c-3.2-4-4.9-10-4.9-17.8v-38h15.5V551c0,9.3,3.4,14,10.1,14c3,0,5.9-0.9,8.7-2.7
		c2.8-1.8,5.1-4.6,6.9-8.3v-37.6h15.5v42.8c0,1.6,0.3,2.8,0.9,3.5c0.6,0.7,1.5,1.1,2.8,1.2v13.2c-1.5,0.3-2.8,0.5-3.9,0.6
		c-1,0.1-2,0.1-2.8,0.1c-2.8,0-5-0.6-6.8-1.9c-1.7-1.3-2.8-3-3.1-5.3l-0.3-4.9c-2.7,4.2-6.2,7.3-10.4,9.4
		C-537.1,577.2-541.7,578.2-546.8,578.2z M-555.2,507.1v-13.8h12.9v13.8H-555.2z M-532.9,507.1v-13.8h12.9v13.8H-532.9z"/>
	<path d="M-452.3,577.1l-17.6-26.3l-8.3,8.2v18.1h-15.5v-84.5h15.5v51.3l24.3-27.3h16.6l-22.6,25.7l24.2,34.9H-452.3z"/>
	<path class="st0" d="M-430,591.1v-14h42.5v14H-430z"/>
</g>
</svg>
