<?xml version="1.0" encoding="utf-8"?>
<!-- Generator: Adobe Illustrator 15.1.0, SVG Export Plug-In . SVG Version: 6.00 Build 0)  -->
<!DOCTYPE svg PUBLIC "-//W3C//DTD SVG 1.1//EN" "http://www.w3.org/Graphics/SVG/1.1/DTD/svg11.dtd">
<svg version="1.1" id="Layer_1" xmlns="http://www.w3.org/2000/svg" xmlns:xlink="http://www.w3.org/1999/xlink" x="0px" y="0px"
	 width="740.95px" height="103.485px" viewBox="29 32.575 740.95 103.485" enable-background="new 29 32.575 740.95 103.485"
	 xml:space="preserve">
<g>
	<path fill="#4C4C4E" d="M150.709,77.497V49.705h4.538v27.792H150.709z"/>
	<path fill="#4C4C4E" d="M168.292,77.497V53.149h-8.873v-3.444h22.282v3.444h-8.832l-0.041,24.348H168.292z"/>
	<path fill="#4C4C4E" d="M182.636,68.381V65.06h10.775v3.322L182.636,68.381L182.636,68.381z"/>
	<path fill="#4C4C4E" d="M203.622,52.419v5.226h5.874v3.039h-5.915v10.493c0,1.985,0.567,3.16,2.714,3.16
		c0.852,0,2.106-0.243,3.605-0.607l0.607,2.917c-1.54,0.729-3.605,1.094-5.267,1.094c-4.416,0-5.996-2.107-5.996-5.307v-11.75
		h-2.836v-2.39l3.079-0.932c0.122-0.284,1.094-4.254,1.215-4.538L203.622,52.419z"/>
	<path fill="#4C4C4E" d="M230.442,66.761v1.58h-13.167c0,3.403,1.337,6.117,5.348,6.117c2.229,0,4.213-0.486,6.36-1.337l0.972,2.755
		c-2.471,1.337-5.145,1.904-7.858,1.904c-7.454,0-9.317-4.659-9.317-10.168c0-3.889,1.539-10.412,9.156-10.412
		C230.118,57.2,230.442,63.804,230.442,66.761z M217.356,65.91h8.994c0-3.362-0.973-5.712-4.254-5.712
		C218.653,60.198,217.559,62.912,217.356,65.91z"/>
	<path fill="#4C4C4E" d="M250.619,74.417h2.633l0.243,2.512c-1.135,0.567-2.755,0.892-4.092,0.892c-1.661,0-2.714-0.405-2.836-2.431
		c0-0.041-0.041-0.041-0.081-0.081c-2.917,2.512-5.672,2.552-6.847,2.552c-4.74,0-5.955-3.444-5.955-5.712
		c0-3.808,3.483-5.793,7.858-5.996l4.821-0.324v-1.094c0-2.917-0.891-4.011-4.011-4.011c-1.944,0-4.254,0.405-6.198,1.053
		c-0.243-0.932-0.527-1.904-0.81-2.836c2.269-1.013,5.428-1.62,8.062-1.62c4.457,0,7.211,1.742,7.211,6.725L250.619,74.417
		L250.619,74.417z M241.787,68.625c-2.35,0.162-3.444,1.256-3.444,3.039c0,2.066,0.933,3.119,3.201,3.119
		c1.499,0,3.241-0.81,4.821-2.228V68.3L241.787,68.625z"/>
	<path fill="#4C4C4E" d="M269.984,58.578v-9.966h4.416v28.885h-4.213l-0.041-1.823c-0.041-0.041-0.041-0.081-0.081-0.081
		c-1.783,1.458-4.173,2.146-6.117,2.146c-5.915,0-7.616-4.497-7.616-9.764c0-6.077,2.188-10.776,8.265-10.776
		C266.014,57.2,268.364,57.564,269.984,58.578z M269.984,61.818c-0.932-0.607-2.998-1.256-4.537-1.256
		c-2.431,0-4.619,1.54-4.619,7.414c0,5.145,1.864,6.563,4.457,6.563c1.418,0,3.728-0.972,4.699-1.782V61.818L269.984,61.818z"/>
	<path fill="#4C4C4E" d="M278.858,71.42V57.686h4.416v12.721c0,2.188,0.203,4.051,3.079,4.051c1.336,0,3.361-0.729,5.063-2.228
		V57.686c1.499,0,2.957-0.041,4.416-0.041v19.851h-4.213l-0.081-2.188l-0.122-0.081c-2.512,2.228-5.226,2.714-6.685,2.714
		C279.385,77.942,278.858,74.701,278.858,71.42z"/>
	<path fill="#4C4C4E" d="M314.389,58.699c-0.283,0.567-0.852,2.309-1.135,2.876c-2.065-0.81-3.768-1.053-5.226-1.053
		c-1.823,0-3.484,0.648-3.484,2.512c0,1.458,2.31,2.147,3.89,2.633c3.321,0.972,7.049,1.945,7.049,6.32
		c0,3.889-3.201,5.793-8.467,5.793c-2.31,0-5.47-0.486-7.535-1.58l1.175-2.876c2.836,1.175,5.064,1.337,6.441,1.337
		c2.228,0,4.011-0.648,4.011-2.714c0-1.863-1.945-2.39-3.97-3.079c-3.524-1.175-6.888-2.066-6.888-5.875s3.079-5.752,7.738-5.752
		C309.852,57.241,312.485,57.605,314.389,58.699z"/>
	<path fill="#4C4C4E" d="M323.667,65.262l7.292-7.576h4.983l-7.576,7.778l1.377,1.661l6.766,10.371h-4.901
		c-2.026-3.12-4.011-6.279-5.996-9.439l-2.025,2.026v7.414h-4.457V48.652h4.457l-0.041,12.397c0,1.458-0.081,2.795-0.122,4.132
		L323.667,65.262z"/>
	<path fill="#4C4C4E" d="M347.693,77.861c-6.887,0-9.156-4.7-9.156-10.209c0-5.388,2.633-10.412,9.479-10.412
		c6.968,0,9.236,5.023,9.236,10.371C357.253,72.878,354.904,77.861,347.693,77.861z M348.017,60.481
		c-3.89,0-4.902,3.727-4.902,7.171c0,3.768,0.77,6.968,4.902,6.968c3.849,0,4.619-3.524,4.619-6.968
		C352.635,64.29,351.946,60.481,348.017,60.481z"/>
	<path fill="#4C4C4E" d="M374.188,77.497V64.776c0-2.674-0.445-4.051-3.16-4.051c-1.621,0-3.808,0.851-5.348,1.742v15.03h-4.457
		V57.686h4.254l0.041,1.742l0.162,0.081c2.269-1.458,5.022-2.309,6.928-2.309c5.347,0,5.996,3.281,5.996,6.604v13.693H374.188z"/>
	<path fill="#4C4C4E" d="M396.026,77.497V64.776c0-2.674-0.445-4.051-3.16-4.051c-1.621,0-3.808,0.851-5.348,1.742v15.03h-4.457
		V57.686h4.254l0.041,1.742l0.162,0.081c2.269-1.458,5.022-2.309,6.928-2.309c5.347,0,5.996,3.281,5.996,6.604v13.693H396.026z"/>
	<path fill="#4C4C4E" d="M421.145,74.417h2.634l0.243,2.512c-1.135,0.567-2.755,0.892-4.092,0.892c-1.661,0-2.716-0.405-2.836-2.431
		c0-0.041-0.041-0.041-0.081-0.081c-2.917,2.512-5.673,2.552-6.848,2.552c-4.739,0-5.955-3.444-5.955-5.712
		c0-3.808,3.484-5.793,7.859-5.996l4.821-0.324v-1.094c0-2.917-0.893-4.011-4.012-4.011c-1.944,0-4.254,0.405-6.198,1.053
		c-0.242-0.932-0.526-1.904-0.811-2.836c2.27-1.013,5.43-1.62,8.063-1.62c4.456,0,7.211,1.742,7.211,6.725L421.145,74.417
		L421.145,74.417z M412.313,68.625c-2.351,0.162-3.443,1.256-3.443,3.039c0,2.066,0.933,3.119,3.2,3.119
		c1.499,0,3.241-0.81,4.821-2.228V68.3L412.313,68.625z"/>
	<path fill="#4C4C4E" d="M149.413,109.803V96.068h4.416v12.722c0,2.188,0.203,4.052,3.079,4.052c1.336,0,3.362-0.729,5.064-2.229
		V96.068c1.499,0,2.957-0.039,4.416-0.039v19.851h-4.214l-0.08-2.188l-0.122-0.08c-2.513,2.229-5.227,2.714-6.686,2.714
		C149.939,116.325,149.413,113.085,149.413,109.803z M154.072,93.152c-1.418,0-2.269-0.891-2.269-2.106
		c0-1.215,0.932-2.106,2.229-2.106c1.458,0,2.35,0.852,2.35,2.106C156.381,92.262,155.49,93.152,154.072,93.152z M162.012,93.152
		c-1.338,0-2.147-0.891-2.147-2.106c0-1.215,0.892-2.106,2.147-2.106c1.499,0,2.39,0.852,2.39,2.106
		C164.402,92.262,163.511,93.152,162.012,93.152z"/>
	<path fill="#4C4C4E" d="M175.788,115.88h-4.375V86.995h4.416L175.788,115.88z"/>
	<path fill="#4C4C4E" d="M184.174,93.273c-1.579,0-2.674-1.174-2.674-2.553c0-1.457,1.095-2.593,2.674-2.593
		c1.661,0,2.756,1.136,2.756,2.593C186.929,92.1,185.835,93.273,184.174,93.273z M181.946,115.88V96.068h4.416v19.812H181.946z"/>
	<path fill="#4C4C4E" d="M200.704,116.244c-6.887,0-9.156-4.699-9.156-10.209c0-5.389,2.634-10.411,9.479-10.411
		c6.968,0,9.237,5.022,9.237,10.371C210.264,111.262,207.915,116.244,200.704,116.244z M197.787,91.289l-2.269,1.58l-1.377-1.055
		c0.77-2.188,2.146-3.361,3.808-3.361c2.066,0,4.659,1.539,6.36,1.539l2.269-1.62l1.377,1.094c-0.688,2.106-2.065,3.403-3.768,3.403
		C201.635,92.869,199.367,91.289,197.787,91.289z M201.027,98.865c-3.889,0-4.902,3.727-4.902,7.17c0,3.768,0.771,6.969,4.902,6.969
		c3.849,0,4.619-3.525,4.619-6.969C205.646,102.673,204.957,98.865,201.027,98.865z"/>
	<path fill="#4C4C4E" d="M218.732,97.975c1.782-1.418,3.97-2.188,5.955-2.188c5.875,0,7.616,4.536,7.616,10.006
		c0,5.834-2.188,10.452-8.184,10.452c-1.458,0-3.849-0.243-5.469-1.297v9.359h-4.416V96.029h4.213l0.081,1.781L218.732,97.975z
		 M227.848,105.63c0-5.104-1.864-6.481-4.497-6.481c-1.458,0-3.769,0.974-4.659,1.824v10.815c0.851,0.606,2.917,1.256,4.497,1.256
		C225.62,113.044,227.848,111.383,227.848,105.63z"/>
	<path fill="#4C4C4E" d="M239.638,93.273c-1.58,0-2.675-1.174-2.675-2.553c0-1.457,1.095-2.593,2.675-2.593
		c1.66,0,2.755,1.136,2.755,2.593C242.393,92.1,241.299,93.273,239.638,93.273z M237.41,115.88V96.068h4.416v19.812H237.41z"/>
	<path fill="#4C4C4E" d="M252.399,115.88h-4.375V86.995h4.416L252.399,115.88z"/>
	<path fill="#4C4C4E" d="M273.709,112.801h2.633l0.243,2.512c-1.135,0.567-2.755,0.893-4.092,0.893
		c-1.661,0-2.714-0.405-2.836-2.432c0-0.041-0.041-0.041-0.081-0.08c-2.917,2.512-5.672,2.552-6.847,2.552
		c-4.74,0-5.955-3.442-5.955-5.712c0-3.809,3.483-5.793,7.858-5.996l4.821-0.323v-1.095c0-2.916-0.891-4.012-4.011-4.012
		c-1.944,0-4.254,0.406-6.198,1.055c-0.243-0.932-0.526-1.904-0.81-2.836c2.269-1.014,5.428-1.62,8.062-1.62
		c4.457,0,7.211,1.741,7.211,6.726L273.709,112.801L273.709,112.801z M264.878,107.008c-2.35,0.162-3.443,1.256-3.443,3.038
		c0,2.065,0.932,3.12,3.2,3.12c1.499,0,3.241-0.811,4.821-2.229v-4.254L264.878,107.008z"/>
	<path fill="#4C4C4E" d="M293.966,97.082c-0.282,0.566-0.851,2.311-1.134,2.877c-2.065-0.811-3.768-1.055-5.226-1.055
		c-1.823,0-3.484,0.648-3.484,2.513c0,1.459,2.31,2.147,3.89,2.634c3.321,0.973,7.049,1.944,7.049,6.319
		c0,3.89-3.201,5.793-8.468,5.793c-2.309,0-5.469-0.485-7.534-1.579l1.175-2.877c2.836,1.175,5.063,1.337,6.44,1.337
		c2.229,0,4.012-0.647,4.012-2.714c0-1.864-1.945-2.391-3.971-3.079c-3.523-1.175-6.887-2.065-6.887-5.874s3.079-5.753,7.738-5.753
		C289.429,95.624,292.063,95.988,293.966,97.082z"/>
	<path fill="#4C4C4E" d="M303.245,103.646l7.292-7.576h4.983l-7.576,7.777l1.377,1.661l6.766,10.371h-4.901
		c-2.026-3.118-4.012-6.278-5.996-9.438l-2.025,2.024v7.414h-4.457V87.035h4.457l-0.041,12.396c0,1.459-0.081,2.795-0.122,4.133
		L303.245,103.646z"/>
	<path fill="#4C4C4E" d="M327.27,116.244c-6.888,0-9.156-4.699-9.156-10.209c0-5.389,2.633-10.411,9.479-10.411
		c6.969,0,9.237,5.022,9.237,10.371C336.831,111.262,334.481,116.244,327.27,116.244z M327.594,98.865
		c-3.89,0-4.902,3.727-4.902,7.17c0,3.768,0.77,6.969,4.902,6.969c3.849,0,4.618-3.525,4.618-6.969
		C332.212,102.673,331.523,98.865,327.594,98.865z"/>
	<path fill="#4C4C4E" d="M343.638,107.898c-1.377-0.771-2.553-2.391-2.553-5.063c0-5.187,4.254-7.292,8.428-7.292
		c1.458,0,2.876,0.162,3.97,0.486h6.725V98.5h-2.957l-0.081,0.203c0.852,0.972,1.216,2.512,1.216,3.93
		c0,4.456-3.769,6.846-8.711,6.846l-2.228,0.041c-1.742,0-2.876,0.283-2.876,1.377c0,0.729,0.77,1.176,1.864,1.176h5.469
		c4.902,0,7.738,1.984,7.738,5.955c0,3.809-3.525,6.645-10.533,6.645c-7.251,0-8.832-2.876-8.832-5.753
		c0-2.106,1.337-3.769,2.593-4.496c-1.499-0.364-2.35-1.378-2.35-2.877c0-2.188,1.58-3.118,3.038-3.524L343.638,107.898z
		 M346.676,114.988c-1.013,0.365-2.106,1.863-2.106,3.16c0,1.822,0.892,3.442,5.186,3.442c3.525,0,5.43-1.377,5.43-3.442
		c0-1.5-0.648-3.16-4.093-3.16H346.676z M349.674,98.581c-2.795,0-4.213,1.58-4.213,4.052c0,2.432,1.499,3.971,3.89,3.971
		c2.633,0,4.618-1.215,4.618-3.971C353.968,100.688,352.956,98.581,349.674,98.581z"/>
	<path fill="#4C4C4E" d="M363.936,109.803V96.068h4.416v12.722c0,2.188,0.203,4.052,3.079,4.052c1.336,0,3.361-0.729,5.063-2.229
		V96.068c1.499,0,2.957-0.039,4.416-0.039v19.851h-4.213l-0.081-2.188l-0.122-0.08c-2.512,2.229-5.226,2.714-6.685,2.714
		C364.463,116.325,363.936,113.085,363.936,109.803z"/>
</g>
<rect x="29" y="33.5" fill="#870042" width="101" height="101"/>
<g>
	<path fill="#FFFFFF" d="M80.679,86.542l-38.67,22.854V93.033l17.369-10.331L42.01,71.732V56.191l38.67,23.403V86.542z"/>
	<path fill="#FFFFFF" d="M84.06,119.544V106.38h32.911v13.164H84.06z"/>
</g>
<g>
	<path fill="#818182" d="M734.637,44.807h-6.586v8.974h6.586V44.807z M751.646,44.807h-6.585v8.974h6.585V44.807z M761.215,44.807
		v49.949c0,12.77-8.231,20.707-21.482,20.707c-13.104,0-21.246-7.854-21.246-20.482V44.807h-8.734V94.98
		c0,16.926,12.086,28.314,30.095,28.314s30.104-11.389,30.104-28.314V44.807H761.215z M576.558,52.086h25.187v69.864h8.736V52.086
		h25.188v-7.28h-59.109L576.558,52.086L576.558,52.086z M643.152,52.086h25.187v69.864h8.741V52.086h25.188v-7.28h-59.114
		L643.152,52.086L643.152,52.086z"/>
	<path fill="#818182" d="M549.64,68.08l5.357-0.528V44.807h-5.357V68.08z M535.748,69.432l8.666-0.847V44.807h-8.666V69.432z
		 M560.234,44.807v22.229l0.266-0.02l1.507-0.141V44.807H560.234z M493.664,67.544l5.367,0.526V44.807h-5.367V67.544z
		 M519.106,70.034l5.229,0.51l5.223-0.51V44.807h-10.452V70.034z M486.795,66.875l1.639,0.154V44.807h-1.639V66.875z
		 M504.258,68.578l8.66,0.848V44.807h-8.66V68.578z"/>
	<path fill="#818182" d="M549.64,121.85h5.357v-22.74l-5.357-0.518V121.85z M535.748,121.85h8.666V98.077l-8.666-0.845V121.85z
		 M562.007,121.85V99.803l-1.508-0.152l-0.265-0.026v22.228h1.772V121.85z M493.664,121.85h5.367V98.6l-5.367,0.521V121.85z
		 M519.106,121.85h10.452V96.631l-5.223-0.504l-5.229,0.504V121.85z M486.795,121.85h1.639V99.633l-1.639,0.17V121.85z
		 M504.258,121.85h8.66V97.24l-8.66,0.849V121.85z"/>
	<path fill="#870042" d="M559.263,94.385h3.58V72.29h-3.58V94.385z M548.817,94.385h7.017V72.29h-7.017V94.385z M534.783,94.385
		h10.597V72.29h-10.597V94.385z M517.314,94.385h14.044V72.29h-14.044V94.385z M503.3,94.385h10.575V72.29H503.3V94.385z
		 M492.843,94.385h7.021V72.29h-7.021V94.385z M485.836,94.385h3.579V72.29h-3.579V94.385z"/>
	<line fill="none" x1="454.517" y1="32.575" x2="454.517" y2="136.061"/>
	<line fill="none" stroke="#808184" stroke-width="1.5665" x1="454.517" y1="32.575" x2="454.517" y2="136.061"/>
</g>
</svg>
